<svg width="50" height="51" viewBox="0 0 50 51" fill="none" xmlns="http://www.w3.org/2000/svg">
<g clip-path="url(#clip0)">
<path d="M25 1.70836C11.1875 1.70836 0 12.7084 0 26.275C0 37.1313 7.1625 46.3375 17.0938 49.5834C18.3438 49.8146 18.8021 49.0542 18.8021 48.4021C18.8021 47.8188 18.7812 46.2729 18.7708 44.225C11.8167 45.7063 10.35 40.9292 10.35 40.9292C9.2125 38.0938 7.56875 37.3354 7.56875 37.3354C5.30417 35.8125 7.74375 35.8438 7.74375 35.8438C10.2542 36.0146 11.5729 38.375 11.5729 38.375C13.8021 42.1313 17.425 41.0459 18.8542 40.4188C19.0792 38.8292 19.7229 37.7479 20.4375 37.1334C14.8854 36.5188 9.05 34.4063 9.05 24.9938C9.05 22.3125 10.0187 20.1209 11.6229 18.4021C11.3417 17.7813 10.4979 15.2834 11.8417 11.9C11.8417 11.9 13.9354 11.2417 18.7167 14.4188C20.7167 13.8729 22.8417 13.6021 24.9667 13.5896C27.0917 13.6021 29.2167 13.8729 31.2167 14.4188C35.9667 11.2417 38.0604 11.9 38.0604 11.9C39.4042 15.2834 38.5604 17.7813 38.3104 18.4021C39.9042 20.1209 40.8729 22.3125 40.8729 24.9938C40.8729 34.4313 35.0292 36.5084 29.4667 37.1125C30.3417 37.85 31.1542 39.3563 31.1542 41.6584C31.1542 44.9459 31.1229 47.5875 31.1229 48.3854C31.1229 49.0292 31.5604 49.7979 32.8417 49.5521C42.8438 46.3271 50 37.1146 50 26.275C50 12.7084 38.8062 1.70836 25 1.70836Z" fill="#E7E7E7"/>
</g>
<defs>
<clipPath id="clip0">
<rect width="50" height="50" fill="white" transform="translate(0 0.666687)"/>
</clipPath>
</defs>
</svg>
