<svg width="95" height="95" viewBox="0 0 95 95" fill="none" xmlns="http://www.w3.org/2000/svg">
<rect width="94.9367" height="94.9367" rx="47.4684" fill="#101010"/>
<g clip-path="url(#clip0)">
<path d="M81.6379 70.0016C79.3285 79.5884 68.935 82.3254 65.2892 83.0005C64.2251 83.195 63.1609 83.3894 62.0973 83.5973C52.5396 85.3655 42.7652 85.6412 33.1228 84.4143C16.4108 82.1438 8.06733 71.597 7.08142 67.7832C6.1212 63.9822 11.2201 67.2249 15.5154 67.2249C16.482 67.2249 17.4446 67.107 18.3826 66.8751C18.5012 66.8553 18.618 66.829 18.733 66.7969C19.7213 66.5288 20.6721 66.1364 21.5617 65.6296C21.536 65.6167 21.4968 65.5904 21.4711 65.5776C18.5905 64.0727 19.1098 62.0879 23.3133 62.4382C27.5729 62.6309 31.8384 62.2379 35.9905 61.2709C31.6381 61.8046 27.2289 61.6516 22.9243 60.8166C14.7105 59.4157 13.1406 53.4091 17.0854 54.4339C19.7808 54.9852 22.5131 55.3408 25.26 55.4979C12.2586 53.4348 10.351 43.1864 12.8035 44.6784C15.3337 46.2089 24.4814 48.2849 30.5926 49.2058C31.2543 49.3097 31.8904 49.4002 32.4744 49.4651C37.2229 50.049 47.2403 47.1432 56.1153 48.9465C56.1287 48.9465 56.1415 48.9594 56.1544 48.9594H56.1801C58.3645 49.3769 60.4648 50.153 62.3958 51.2555C65.7769 53.1574 68.5075 56.0322 70.2328 59.5062C70.0249 61.2318 69.727 63.139 69.675 63.4888C69.4846 65.1892 68.6313 66.7461 67.3002 67.8217C66.7138 68.2381 66.5748 69.0504 66.9889 69.6384C67.2313 69.9783 67.622 70.1809 68.0402 70.1832C68.3112 70.185 68.5752 70.0986 68.7925 69.9368C70.4221 68.721 71.5633 66.9633 72.0101 64.9808V64.9422C72.0236 64.9031 72.0236 64.864 72.0364 64.8254L72.0621 64.6438C72.1252 64.2742 72.169 63.9016 72.1918 63.5279L72.2052 63.372C72.3133 61.2878 72.1784 59.1984 71.8028 57.1453C70.8297 51.4114 65.8599 44.38 61.3707 34.9748C56.881 25.569 60.3457 19.5239 63.5896 17.2534C66.8329 14.983 70.7778 16.3325 73.8009 18.4342C75.9678 19.9519 77.084 20.6264 77.5898 22.3777C75.3709 23.6624 71.5043 23.2209 71.5043 23.2209C73.2904 24.7847 74.1478 27.1556 73.7752 29.5002C71.9868 28.6885 70.3502 27.579 68.935 26.2178C66.6127 23.8954 65.0947 25.2969 65.2116 28.2155C65.3278 31.1347 66.7167 33.5733 72.8278 42.1095C78.9395 50.6458 84.4537 58.326 81.6379 70.0016V70.0016Z" fill="white"/>
<path d="M72.0089 64.942V64.9805C71.5621 66.963 70.4208 68.7207 68.7913 69.9365C68.574 70.0983 68.31 70.1847 68.039 70.183C67.6208 70.1806 67.23 69.978 66.9877 69.6381C66.5736 69.0501 66.7126 68.2378 67.299 67.8214C68.6301 66.7458 69.4834 65.189 69.6738 63.4885C69.7258 63.1387 70.0236 61.2315 70.2316 59.5059C70.7128 60.4607 71.1118 61.4546 71.4254 62.4771C71.6252 63.106 71.7852 63.7478 71.9055 64.3965L72.0089 64.942Z" fill="#3A424A"/>
<path d="M40.7087 79.8632C40.3758 79.8655 40.0435 79.8457 39.7135 79.8048C38.2072 79.5998 37.7557 78.8658 37.6371 78.2871C37.4671 77.4257 37.9724 76.6444 39.137 75.9711C41.7747 74.2829 44.1985 72.2828 46.3567 70.0142C47.5493 68.7984 48.4587 67.7864 48.8623 67.335L49.0399 67.1382C49.5229 66.6085 50.3441 66.5706 50.8733 67.0535C51.403 67.5364 51.441 68.3575 50.958 68.8865L50.7933 69.0681C50.3897 69.5195 49.4412 70.5759 48.1983 71.8408C46.2936 73.7982 44.226 75.5904 42.0176 77.1986C45.4484 76.7834 51.5771 74.8633 53.8258 70.4007C54.1482 69.7601 54.9285 69.502 55.5692 69.8244C56.2099 70.1473 56.4681 70.9275 56.1457 71.5681C53.0314 77.7539 44.5817 79.8632 40.7087 79.8632V79.8632Z" fill="#3A424A"/>
<path d="M33.5697 77.7578C32.6976 77.7934 31.8268 77.6615 31.0044 77.3689C30.3035 77.1324 29.8158 76.4947 29.7715 75.756C29.7469 74.9548 30.2662 74.2786 31.3146 73.7455C33.8991 72.3294 36.4088 70.7807 38.8339 69.1053C39.4291 68.7048 40.2357 68.863 40.6357 69.4581C41.0364 70.0531 40.8781 70.8595 40.283 71.2601C38.5015 72.4596 36.1571 73.9843 34.1158 75.1697C38.6721 74.8106 42.989 72.9834 46.418 69.9626C46.7656 69.6554 47.2503 69.5573 47.6907 69.7045C48.1305 69.8522 48.4582 70.223 48.5499 70.6779C48.6422 71.1323 48.4845 71.6012 48.1369 71.9083C44.0946 75.4693 38.9525 77.5342 33.5697 77.7578Z" fill="#3A424A"/>
<path d="M50.0036 69.3136C49.4937 69.3136 49.0311 69.0146 48.8214 68.5503C48.6117 68.0855 48.6935 67.5413 49.0305 67.1588C49.0679 67.1121 49.1199 67.0537 49.1508 67.0216C49.6485 66.538 50.4375 66.531 50.9434 67.0058C51.4492 67.48 51.4924 68.2677 51.0415 68.795C51.0035 68.8429 50.9632 68.8885 50.9206 68.9323C50.6776 69.1763 50.3476 69.313 50.0036 69.3136V69.3136Z" fill="#3A424A"/>
<path d="M30.5395 73.8714C28.0309 73.9946 25.5509 73.2904 23.481 71.8667C22.6639 71.3581 22.2708 70.3782 22.5103 69.4462C22.6586 68.9726 23.1399 68.1486 24.6994 68.019C27.4229 67.6126 30.0927 66.9048 32.6597 65.9086C33.0574 65.7813 33.4914 65.8479 33.8325 66.0879C34.1736 66.3285 34.3821 66.715 34.3961 67.132C34.3973 67.72 34.0024 68.2351 33.4347 68.3875C31.0412 69.2774 28.5788 69.9688 26.0725 70.4553C28.2108 71.3995 33.0895 72.1172 38.9507 69.0281C40.7391 68.0757 42.4101 66.9177 43.9305 65.5775C43.9778 65.5378 44.0268 65.501 44.0782 65.4671C44.6191 65.0315 45.4076 65.0992 45.8661 65.6207C46.3251 66.1422 46.2919 66.9323 45.7913 67.4134C45.7265 67.4742 45.6576 67.5308 45.5845 67.5816C43.9258 69.0363 42.1041 70.2941 40.1556 71.33C37.2049 72.9459 33.9043 73.8183 30.5395 73.8714V73.8714Z" fill="#3A424A"/>
<path d="M40.3889 64.8253C40.3924 65.3153 40.115 65.7637 39.6752 65.9798C37.7104 67.066 35.6065 67.8777 33.421 68.3927C33.3953 68.3927 33.369 68.4056 33.3433 68.4056H33.3304C31.4205 68.8827 29.4598 69.1262 27.4915 69.132C26.6025 69.132 25.7142 69.08 24.8316 68.9767C24.1956 68.8984 23.5987 68.8079 23.0146 68.6783C21.7477 68.4494 20.5171 68.0523 19.356 67.4975C19.2649 67.4584 18.8887 67.212 18.3823 66.875C18.5009 66.8552 18.6177 66.8289 18.7328 66.7968C19.721 66.5287 20.6719 66.1363 21.5614 65.6294C21.5357 65.6166 21.4966 65.5903 21.4709 65.5775C22.6577 65.9962 23.8901 66.2706 25.1429 66.395C27.6609 66.6689 30.2074 66.5019 32.6687 65.9016C32.7072 65.8887 32.7464 65.8887 32.7855 65.8759C32.8153 65.8654 32.8457 65.8566 32.876 65.8502C34.8029 65.3959 36.6585 64.6799 38.3908 63.7222C38.6028 63.5967 38.8446 63.5295 39.0917 63.5278C39.4357 63.5278 39.7657 63.6644 40.0087 63.9079C40.2522 64.1509 40.3889 64.4808 40.3889 64.8253Z" fill="#3A424A"/>
<path d="M56.1144 48.9464C47.2394 47.1431 37.222 50.0489 32.4735 49.465C31.8895 49.4001 31.2534 49.3096 30.5917 49.2057C25.1423 46.8576 19.3939 43.6406 17.4735 37.6077C17.3438 37.2059 17.175 36.6091 17.6166 36.3493C18.1486 36.038 19.1737 36.622 19.6275 36.8293C21.0929 37.5698 22.5023 38.4147 23.8445 39.359C31.9543 44.7951 34.2252 44.8727 45.6046 46.3776C49.2147 46.7157 52.7554 47.5811 56.1144 48.9464Z" fill="#3A424A"/>
<path d="M75.5125 25.1799C75.7461 25.3615 76.6023 26.3344 75.6421 30.3561C75.162 30.1482 74.5131 29.8632 73.7737 29.5C74.1463 27.1554 73.2889 24.7846 71.5028 23.2207C71.5028 23.2207 75.3694 23.6622 77.5882 22.3775C77.6858 22.7039 77.8114 23.0204 77.9644 23.3247C78.1595 23.7527 78.3931 24.1936 78.5613 24.6088C78.6261 24.7519 78.743 24.972 78.8341 25.1799C78.8411 25.1869 78.8458 25.1957 78.8469 25.2056C78.8861 25.3095 78.9246 25.4263 78.9637 25.5303C77.8055 25.7831 76.5965 25.6605 75.5125 25.1799V25.1799Z" fill="#2C2F38"/>
<path d="M82.6107 32.1594C82.6492 32.7691 82.3771 33.3787 81.689 33.353C80.6254 33.3011 77.7705 31.4458 76.1614 30.6155C75.9885 30.5249 75.8331 30.4467 75.6947 30.3819C75.6813 30.369 75.6684 30.369 75.6427 30.3562C76.1327 28.6604 75.895 26.8373 74.9862 25.3236C74.8665 25.1356 74.8519 24.8985 74.9477 24.6971C75.0434 24.4956 75.2368 24.3572 75.4581 24.3315C76.3716 24.2375 77.2407 23.8883 77.965 23.3248C78.1601 23.7528 78.3937 24.1937 78.5619 24.6089C78.6267 24.752 78.7435 24.9721 78.8347 25.18C78.8417 25.187 78.8463 25.1958 78.8475 25.2057C78.8866 25.3096 78.9252 25.4264 78.9643 25.5304C79.1588 26.0489 79.3276 26.4904 79.3924 26.6457C79.5478 27.0341 79.73 27.4113 79.9374 27.7745C80.5343 28.7865 81.4554 29.5649 82.0657 30.5763C82.3724 31.0523 82.5593 31.5953 82.6107 32.1594V32.1594Z" fill="#E57E25"/>
<path d="M73.0171 23.5595C73.0171 24.276 72.436 24.857 71.7193 24.857C71.0027 24.857 70.4221 24.276 70.4221 23.5595C70.4221 22.8429 71.0027 22.2619 71.7193 22.2619C72.436 22.2619 73.0171 22.8429 73.0171 23.5595Z" fill="#101010"/>
<path d="M54.4354 25.0879C54.4354 16.4755 61.4184 9.4939 70.0323 9.4939L71.6658 9.4939C80.2797 9.4939 87.2627 16.4755 87.2627 25.0878C87.2627 26.0217 87.1704 26.934 86.9946 27.8162C86.4034 30.7815 84.8672 33.4058 82.7134 35.3628C83.0589 35.6551 83.2787 36.0911 83.2787 36.579L83.2787 37.3758C83.2788 38.2557 82.5653 38.9691 81.6853 38.9691L73.3789 38.9691L68.3193 38.9691L60.0129 38.9691C59.1328 38.9691 58.4193 38.2557 58.4193 37.3758L58.4193 36.5792C58.4193 36.0914 58.6391 35.6555 58.9844 35.3632C56.1898 32.8239 54.4354 29.1608 54.4354 25.0879Z" fill="#84B8C8" fill-opacity="0.3"/>
<path d="M54.436 25.0881C54.4027 23.9149 54.5666 22.7714 54.8124 21.6719C57.311 16.8011 62.3868 13.4698 68.2401 13.4773C76.4572 13.4878 83.1108 20.009 83.2763 28.223C83.2881 28.8095 83.2664 29.3885 83.2128 29.9583C83.211 29.9771 83.2092 29.9959 83.2073 30.0147C82.9257 32.8429 80.9218 35.3635 78.0791 35.3635L71.954 35.3635L58.9849 35.3635C56.6196 33.2808 54.5759 30.0204 54.436 25.0881ZM79.6939 36.5794L68.9373 36.5794L59.615 36.5794C58.9549 36.5794 58.4198 37.1143 58.4198 37.7743C58.4198 38.4343 58.9549 38.9692 59.615 38.9692L67.5192 38.9692L67.5655 38.9829C68.5392 39.2702 69.5758 39.2654 70.5468 38.9692L79.6939 38.9692C80.354 38.9692 80.8891 38.4343 80.8891 37.7743C80.8891 37.1143 80.354 36.5794 79.6939 36.5794Z" fill="#9DC6D4" fill-opacity="0.3"/>
</g>
<defs>
<clipPath id="clip0">
<rect width="80.3798" height="76.5823" fill="white" transform="translate(6.9624 8.8609)"/>
</clipPath>
</defs>
</svg>
