<svg width="128" height="107" viewBox="0 0 128 107" fill="none" xmlns="http://www.w3.org/2000/svg">
<rect y="1" width="94.9367" height="94.9367" rx="47.4684" fill="white"/>
<g clip-path="url(#clip0)">
<path d="M81.6379 71.0016C79.3285 80.5884 68.935 83.3254 65.2892 84.0005C64.2251 84.195 63.1609 84.3894 62.0973 84.5973C52.5396 86.3655 42.7652 86.6412 33.1228 85.4143C16.4108 83.1438 8.06733 72.597 7.08142 68.7832C6.1212 64.9822 11.2201 68.2249 15.5154 68.2249C16.482 68.2249 17.4446 68.107 18.3826 67.8751C18.5012 67.8553 18.618 67.829 18.733 67.7969C19.7213 67.5288 20.6721 67.1364 21.5617 66.6296C21.536 66.6167 21.4968 66.5904 21.4711 66.5776C18.5905 65.0727 19.1098 63.0879 23.3133 63.4382C27.5729 63.6309 31.8384 63.2379 35.9905 62.2709C31.6381 62.8046 27.2289 62.6516 22.9243 61.8166C14.7105 60.4157 13.1406 54.4091 17.0854 55.4339C19.7808 55.9852 22.5131 56.3408 25.26 56.4979C12.2586 54.4348 10.351 44.1864 12.8035 45.6784C15.3337 47.2089 24.4814 49.2849 30.5926 50.2058C31.2543 50.3097 31.8904 50.4002 32.4744 50.4651C37.2229 51.049 47.2403 48.1432 56.1153 49.9465C56.1287 49.9465 56.1415 49.9594 56.1544 49.9594H56.1801C58.3645 50.3769 60.4648 51.153 62.3958 52.2555C65.7769 54.1574 68.5075 57.0322 70.2328 60.5062C70.0249 62.2318 69.727 64.139 69.675 64.4888C69.4846 66.1893 68.6313 67.7461 67.3002 68.8217C66.7138 69.2381 66.5748 70.0504 66.9889 70.6384C67.2313 70.9783 67.622 71.1809 68.0402 71.1832C68.3112 71.185 68.5752 71.0986 68.7925 70.9368C70.4221 69.721 71.5633 67.9633 72.0101 65.9808V65.9422C72.0236 65.9031 72.0236 65.864 72.0364 65.8254L72.0621 65.6438C72.1252 65.2742 72.169 64.9016 72.1918 64.5279L72.2052 64.372C72.3133 62.2878 72.1784 60.1984 71.8028 58.1453C70.8297 52.4114 65.8599 45.38 61.3707 35.9748C56.881 26.569 60.3457 20.5239 63.5896 18.2534C66.8329 15.983 70.7778 17.3325 73.8009 19.4342C75.9678 20.9519 77.084 21.6264 77.5898 23.3777C75.3709 24.6624 71.5043 24.2209 71.5043 24.2209C73.2904 25.7847 74.1478 28.1556 73.7752 30.5002C71.9868 29.6885 70.3502 28.579 68.935 27.2178C66.6127 24.8954 65.0947 26.2969 65.2116 29.2155C65.3278 32.1347 66.7167 34.5733 72.8278 43.1095C78.9395 51.6458 84.4538 59.326 81.6379 71.0016Z" fill="#101010"/>
<path d="M72.0089 65.942V65.9805C71.5621 67.963 70.4208 69.7207 68.7913 70.9365C68.574 71.0983 68.31 71.1847 68.039 71.183C67.6208 71.1806 67.23 70.978 66.9877 70.6381C66.5736 70.0501 66.7126 69.2378 67.299 68.8214C68.6301 67.7458 69.4834 66.189 69.6738 64.4885C69.7258 64.1387 70.0236 62.2315 70.2316 60.5059C70.7128 61.4607 71.1118 62.4546 71.4254 63.4771C71.6252 64.106 71.7852 64.7478 71.9055 65.3965L72.0089 65.942Z" fill="#3A424A"/>
<path d="M40.7087 80.8632C40.3758 80.8655 40.0435 80.8457 39.7135 80.8048C38.2072 80.5998 37.7557 79.8658 37.6371 79.2871C37.4671 78.4257 37.9724 77.6444 39.137 76.9711C41.7747 75.2829 44.1985 73.2828 46.3567 71.0142C47.5493 69.7984 48.4587 68.7864 48.8623 68.335L49.0399 68.1382C49.5229 67.6085 50.3441 67.5706 50.8733 68.0535C51.403 68.5364 51.441 69.3575 50.958 69.8865L50.7933 70.0681C50.3897 70.5195 49.4412 71.5759 48.1982 72.8408C46.2936 74.7982 44.226 76.5904 42.0176 78.1986C45.4484 77.7834 51.5771 75.8633 53.8258 71.4007C54.1482 70.7601 54.9285 70.502 55.5692 70.8244C56.2099 71.1473 56.4681 71.9275 56.1457 72.5681C53.0314 78.7539 44.5817 80.8632 40.7087 80.8632Z" fill="#3A424A"/>
<path d="M33.5697 78.7578C32.6976 78.7934 31.8268 78.6615 31.0044 78.3689C30.3035 78.1324 29.8158 77.4947 29.7715 76.756C29.7469 75.9548 30.2662 75.2786 31.3146 74.7455C33.8991 73.3294 36.4088 71.7807 38.8339 70.1053C39.4291 69.7048 40.2357 69.863 40.6357 70.4581C41.0364 71.0531 40.8781 71.8595 40.283 72.2601C38.5015 73.4596 36.1571 74.9843 34.1158 76.1697C38.6721 75.8106 42.989 73.9834 46.418 70.9626C46.7656 70.6554 47.2503 70.5573 47.6907 70.7045C48.1305 70.8522 48.4582 71.223 48.5499 71.6779C48.6422 72.1323 48.4845 72.6012 48.1369 72.9083C44.0946 76.4693 38.9525 78.5342 33.5697 78.7578Z" fill="#3A424A"/>
<path d="M50.0036 70.3136C49.4937 70.3136 49.0311 70.0146 48.8214 69.5503C48.6117 69.0855 48.6935 68.5413 49.0305 68.1588C49.0679 68.1121 49.1199 68.0537 49.1508 68.0216C49.6485 67.538 50.4375 67.531 50.9434 68.0058C51.4492 68.48 51.4924 69.2677 51.0415 69.795C51.0035 69.8429 50.9632 69.8885 50.9206 69.9323C50.6776 70.1763 50.3476 70.313 50.0036 70.3136Z" fill="#3A424A"/>
<path d="M30.5395 74.8714C28.0309 74.9946 25.5509 74.2904 23.481 72.8667C22.6639 72.3581 22.2708 71.3782 22.5103 70.4462C22.6586 69.9726 23.1399 69.1486 24.6994 69.019C27.4229 68.6126 30.0927 67.9048 32.6597 66.9086C33.0574 66.7813 33.4914 66.8479 33.8325 67.0879C34.1736 67.3285 34.3821 67.715 34.3961 68.132C34.3973 68.72 34.0024 69.2351 33.4347 69.3875C31.0412 70.2774 28.5788 70.9688 26.0725 71.4553C28.2108 72.3995 33.0895 73.1172 38.9507 70.0281C40.7391 69.0757 42.4101 67.9177 43.9305 66.5775C43.9778 66.5378 44.0268 66.501 44.0782 66.4671C44.6191 66.0315 45.4076 66.0992 45.8661 66.6207C46.3251 67.1422 46.2919 67.9323 45.7913 68.4134C45.7265 68.4742 45.6576 68.5308 45.5845 68.5816C43.9258 70.0363 42.1041 71.2941 40.1556 72.33C37.2049 73.9459 33.9043 74.8183 30.5395 74.8714Z" fill="#3A424A"/>
<path d="M40.3889 65.8253C40.3924 66.3153 40.115 66.7637 39.6752 66.9798C37.7104 68.066 35.6066 68.8777 33.421 69.3927C33.3953 69.3927 33.369 69.4056 33.3433 69.4056H33.3304C31.4205 69.8827 29.4598 70.1262 27.4915 70.132C26.6025 70.132 25.7142 70.08 24.8316 69.9767C24.1956 69.8984 23.5987 69.8079 23.0146 69.6783C21.7477 69.4494 20.5171 69.0523 19.356 68.4975C19.2649 68.4584 18.8887 68.212 18.3823 67.875C18.5009 67.8552 18.6177 67.8289 18.7328 67.7968C19.721 67.5287 20.6719 67.1363 21.5614 66.6294C21.5357 66.6166 21.4966 66.5903 21.4709 66.5775C22.6577 66.9962 23.8901 67.2706 25.1429 67.395C27.6609 67.6689 30.2074 67.5019 32.6687 66.9016C32.7072 66.8887 32.7464 66.8887 32.7855 66.8759C32.8153 66.8654 32.8457 66.8566 32.876 66.8502C34.8029 66.3959 36.6585 65.6799 38.3908 64.7222C38.6028 64.5967 38.8446 64.5295 39.0917 64.5278C39.4357 64.5278 39.7657 64.6644 40.0087 64.9079C40.2522 65.1509 40.3889 65.4808 40.3889 65.8253Z" fill="#3A424A"/>
<path d="M56.1144 49.9464C47.2394 48.1431 37.222 51.0489 32.4735 50.465C31.8895 50.4001 31.2534 50.3096 30.5917 50.2057C25.1423 47.8576 19.3939 44.6406 17.4735 38.6077C17.3438 38.2059 17.175 37.6091 17.6166 37.3493C18.1486 37.038 19.1737 37.622 19.6275 37.8293C21.0929 38.5698 22.5023 39.4147 23.8445 40.359C31.9543 45.7951 34.2252 45.8727 45.6046 47.3776C49.2147 47.7157 52.7554 48.5811 56.1144 49.9464Z" fill="#3A424A"/>
<path d="M75.5125 26.1799C75.7461 26.3615 76.6023 27.3344 75.6421 31.3561C75.162 31.1482 74.5131 30.8632 73.7737 30.5C74.1463 28.1554 73.2889 25.7846 71.5028 24.2207C71.5028 24.2207 75.3694 24.6622 77.5882 23.3775C77.6858 23.7039 77.8114 24.0204 77.9644 24.3247C78.1595 24.7527 78.3931 25.1936 78.5613 25.6088C78.6261 25.7519 78.743 25.972 78.8341 26.1799C78.8411 26.1869 78.8458 26.1957 78.8469 26.2056C78.8861 26.3095 78.9246 26.4263 78.9637 26.5303C77.8055 26.7831 76.5965 26.6605 75.5125 26.1799Z" fill="#2C2F38"/>
<path d="M82.6107 33.1594C82.6492 33.7691 82.3771 34.3787 81.689 34.353C80.6254 34.3011 77.7705 32.4458 76.1614 31.6155C75.9885 31.5249 75.8331 31.4467 75.6947 31.3819C75.6813 31.369 75.6684 31.369 75.6427 31.3562C76.1327 29.6604 75.895 27.8373 74.9862 26.3236C74.8665 26.1356 74.8519 25.8985 74.9477 25.6971C75.0434 25.4956 75.2368 25.3572 75.4581 25.3315C76.3716 25.2375 77.2407 24.8883 77.965 24.3248C78.1601 24.7528 78.3937 25.1937 78.5619 25.6089C78.6267 25.752 78.7435 25.9721 78.8347 26.18C78.8417 26.187 78.8463 26.1958 78.8475 26.2057C78.8866 26.3096 78.9252 26.4264 78.9643 26.5304C79.1588 27.0489 79.3276 27.4904 79.3924 27.6457C79.5478 28.0341 79.73 28.4113 79.9374 28.7745C80.5343 29.7865 81.4554 30.5649 82.0657 31.5763C82.3724 32.0523 82.5593 32.5953 82.6107 33.1594Z" fill="#E57E25"/>
<path d="M73.0171 24.5595C73.0171 25.276 72.436 25.857 71.7193 25.857C71.0027 25.857 70.4221 25.276 70.4221 24.5595C70.4221 23.8429 71.0027 23.2619 71.7193 23.2619C72.436 23.2619 73.0171 23.8429 73.0171 24.5595Z" fill="white"/>
<path d="M54.4354 26.0879C54.4354 17.4755 61.4184 10.4939 70.0323 10.4939L71.6658 10.4939C80.2797 10.4939 87.2627 17.4755 87.2627 26.0878C87.2627 27.0217 87.1704 27.934 86.9946 28.8162C86.4034 31.7815 84.8672 34.4058 82.7134 36.3628C83.0589 36.6551 83.2787 37.0911 83.2787 37.579L83.2787 38.3758C83.2788 39.2557 82.5653 39.9691 81.6853 39.9691L73.3789 39.9691L68.3193 39.9691L60.0129 39.9691C59.1328 39.9691 58.4193 39.2557 58.4193 38.3758L58.4193 37.5792C58.4193 37.0914 58.6391 36.6555 58.9844 36.3632C56.1898 33.8239 54.4354 30.1608 54.4354 26.0879Z" fill="#84B8C8" fill-opacity="0.3"/>
<path d="M54.436 26.0881C54.4027 24.9149 54.5666 23.7714 54.8124 22.6719C57.311 17.8011 62.3868 14.4698 68.2401 14.4773C76.4572 14.4878 83.1108 21.009 83.2763 29.223C83.2881 29.8095 83.2664 30.3885 83.2128 30.9583C83.211 30.9771 83.2092 30.9959 83.2073 31.0147C82.9257 33.8429 80.9218 36.3635 78.0791 36.3635L71.954 36.3635L58.9849 36.3635C56.6196 34.2808 54.5759 31.0204 54.436 26.0881ZM79.6939 37.5794L68.9373 37.5794L59.615 37.5794C58.9549 37.5794 58.4198 38.1143 58.4198 38.7743C58.4198 39.4343 58.9549 39.9692 59.615 39.9692L67.5192 39.9692L67.5655 39.9829C68.5392 40.2702 69.5758 40.2654 70.5468 39.9692L79.6939 39.9692C80.354 39.9692 80.8891 39.4343 80.8891 38.7743C80.8891 38.1143 80.354 37.5794 79.6939 37.5794Z" fill="#9DC6D4" fill-opacity="0.3"/>
</g>
<path d="M96.62 96C96.5 96 96.44 95.94 96.44 95.82L96.512 71.088C96.512 70.992 96.56 70.944 96.656 70.944L103.388 70.908C104.708 70.884 105.908 71.196 106.988 71.844C108.092 72.492 108.968 73.368 109.616 74.472C110.264 75.552 110.588 76.752 110.588 78.072V88.404C110.588 89.796 110.252 91.068 109.58 92.22C108.908 93.348 108.008 94.248 106.88 94.92C105.752 95.592 104.48 95.94 103.064 95.964L96.62 96ZM100.832 91.572H103.064C103.952 91.572 104.696 91.26 105.296 90.636C105.92 90.012 106.232 89.268 106.232 88.404V78.036C106.232 77.268 105.944 76.608 105.368 76.056C104.816 75.48 104.156 75.204 103.388 75.228L100.868 75.264L100.832 91.572ZM119.54 96.36C118.244 96.36 117.056 96.036 115.976 95.388C114.92 94.716 114.068 93.84 113.42 92.76C112.796 91.656 112.484 90.444 112.484 89.124V87.468C112.484 87.348 112.544 87.288 112.664 87.288H116.696C116.792 87.288 116.84 87.348 116.84 87.468V89.124C116.84 89.916 117.104 90.6 117.632 91.176C118.16 91.728 118.796 92.004 119.54 92.004C120.284 92.004 120.92 91.716 121.448 91.14C121.976 90.564 122.24 89.892 122.24 89.124C122.24 88.236 121.664 87.468 120.512 86.82C120.128 86.604 119.528 86.268 118.712 85.812C117.896 85.356 117.128 84.924 116.408 84.516C115.088 83.748 114.104 82.788 113.456 81.636C112.832 80.46 112.52 79.14 112.52 77.676C112.52 76.332 112.844 75.132 113.492 74.076C114.14 72.996 114.992 72.144 116.048 71.52C117.128 70.896 118.292 70.584 119.54 70.584C120.812 70.584 121.976 70.908 123.032 71.556C124.112 72.18 124.964 73.032 125.588 74.112C126.236 75.168 126.56 76.356 126.56 77.676V80.628C126.56 80.724 126.512 80.772 126.416 80.772H122.384C122.288 80.772 122.24 80.724 122.24 80.628L122.204 77.676C122.204 76.836 121.94 76.152 121.412 75.624C120.884 75.096 120.26 74.832 119.54 74.832C118.796 74.832 118.16 75.12 117.632 75.696C117.104 76.248 116.84 76.908 116.84 77.676C116.84 78.468 117.008 79.128 117.344 79.656C117.68 80.184 118.292 80.688 119.18 81.168C119.3 81.24 119.528 81.372 119.864 81.564C120.224 81.732 120.608 81.936 121.016 82.176C121.424 82.392 121.784 82.584 122.096 82.752C122.432 82.92 122.636 83.028 122.708 83.076C123.908 83.748 124.856 84.576 125.552 85.56C126.248 86.52 126.596 87.708 126.596 89.124C126.596 90.492 126.272 91.728 125.624 92.832C125 93.912 124.148 94.776 123.068 95.424C122.012 96.048 120.836 96.36 119.54 96.36Z" fill="white"/>
<path d="M24 12L29.5921 3.26026L33 1.99999L35 1.49999L37 0.999987L44 0L24 12Z" fill="#171717"/>
<defs>
<clipPath id="clip0">
<rect width="80.3798" height="76.5823" fill="white" transform="translate(6.9624 9.8609)"/>
</clipPath>
</defs>
</svg>
