<svg width="119" height="119" viewBox="0 0 119 119" fill="none" xmlns="http://www.w3.org/2000/svg">
<g clip-path="url(#clip0)">
<path d="M117.879 1.21126C116.626 -0.0897446 114.65 -0.375332 113.088 0.513161L69.3294 25.1292L73.2483 5.5506C73.5894 3.82914 72.7723 2.09976 71.2333 1.27473C69.6943 0.45763 67.7904 0.719418 66.5529 1.96489L10.7127 57.8051C10.6096 57.8844 10.5144 57.9717 10.4271 58.0669C3.70787 64.8892 0.00317383 73.8535 0.00317383 83.3016C0.00317383 102.983 16.0198 119 35.7015 119C45.1576 119 54.1219 115.295 60.9363 108.584C61.0394 108.481 61.1267 108.378 61.2219 108.267L108.629 60.8672C109.819 59.6773 110.129 57.8606 109.399 56.3454C108.677 54.8302 107.059 53.9734 105.385 54.1242L88.1385 56.036L118.419 6.02658C119.355 4.47965 119.141 2.50434 117.879 1.21126Z" fill="#52A0A0"/>
<path d="M35.7012 107.101C48.845 107.101 59.5002 96.4454 59.5002 83.3016C59.5002 70.1579 48.845 59.5027 35.7012 59.5027C22.5575 59.5027 11.9023 70.1579 11.9023 83.3016C11.9023 96.4454 22.5575 107.101 35.7012 107.101Z" fill="#7056DB"/>
</g>
<defs>
<clipPath id="clip0">
<rect width="119" height="119" fill="white"/>
</clipPath>
</defs>
</svg>
