    <svg id="moon" width="168" height="162" viewBox="0 0 168 162" fill="none" xmlns="http://www.w3.org/2000/svg">
        <g id="stars">
            <path id="starTR"
                d="M141.315 0.634971L143.857 5.71861C143.92 5.8456 144.023 5.94863 144.15 6.01196L149.234 8.55361C149.717 8.79544 149.717 9.48582 149.234 9.72765L144.15 12.2693C144.023 12.333 143.92 12.4357 143.857 12.5626L141.315 17.6463C141.073 18.1299 140.383 18.1299 140.141 17.6463L137.599 12.563C137.536 12.436 137.433 12.333 137.306 12.2696L132.222 9.72797C131.739 9.48614 131.739 8.79577 132.222 8.55394L137.306 6.01228C137.433 5.94863 137.536 5.84593 137.599 5.71894L140.141 0.6353C140.383 0.151315 141.073 0.151315 141.315 0.634971V0.634971Z"
                fill="#5D91B9" />
            <path id="starBL"
                d="M22.3817 161.365L19.8401 156.281C19.7764 156.154 19.6737 156.051 19.5467 155.988L14.4631 153.446C13.9794 153.205 13.9794 152.514 14.4631 152.272L19.5467 149.731C19.6737 149.667 19.7768 149.564 19.8401 149.437L22.3817 144.354C22.6236 143.87 23.3139 143.87 23.5558 144.354L26.0974 149.437C26.1611 149.564 26.2638 149.667 26.3908 149.731L31.4744 152.272C31.9581 152.514 31.9581 153.205 31.4744 153.446L26.3908 155.988C26.2638 156.052 26.1608 156.154 26.0974 156.281L23.5558 161.365C23.3139 161.849 22.6236 161.849 22.3817 161.365Z"
                fill="#5D91B9" />
            <path id="starBR"
                d="M165.436 120.539H164.227C164.045 120.539 163.898 120.392 163.898 120.211V119.001C163.898 117.654 162.86 116.479 161.513 116.438C160.119 116.397 158.977 117.514 158.977 118.898V120.211C158.977 120.392 158.83 120.539 158.648 120.539H157.439C156.091 120.539 154.916 121.577 154.876 122.924C154.834 124.318 155.951 125.461 157.336 125.461H158.648C158.83 125.461 158.977 125.608 158.977 125.789V126.999C158.977 128.346 160.015 129.521 161.362 129.562C162.756 129.603 163.898 128.486 163.898 127.102V125.789C163.898 125.608 164.045 125.461 164.227 125.461H165.539C166.923 125.461 168.041 124.318 167.999 122.924C167.958 121.577 166.783 120.539 165.436 120.539V120.539Z"
                fill="#F3D332" />
            <path id="starTL"
                d="M10.561 33.2578H9.35156C9.17043 33.2578 9.02343 33.1108 9.02343 32.9297V31.7202C9.02343 30.3726 7.98492 29.1976 6.63796 29.1572C5.24442 29.1156 4.10156 30.2328 4.10156 31.6172V32.9297C4.10156 33.1108 3.95456 33.2578 3.77343 33.2578H2.56397C1.21636 33.2578 0.04134 34.296 0.000980658 35.643C-0.0410193 37.0365 1.07625 38.1797 2.46093 38.1797H3.77343C3.95456 38.1797 4.10156 38.3267 4.10156 38.5078V39.7173C4.10156 41.0649 5.14007 42.2399 6.48703 42.2803C7.88057 42.3219 9.02343 41.2047 9.02343 39.8203V38.5078C9.02343 38.3267 9.17043 38.1797 9.35156 38.1797H10.6641C12.0484 38.1797 13.1657 37.0368 13.124 35.643C13.0833 34.296 11.9083 33.2578 10.561 33.2578Z"
                fill="#F3D332" />
        </g>
        <g>
            <path id="Vector"
                d="M154.055 81C154.055 96.773 148.842 111.329 140.045 123.038C127.264 140.05 108.546 148.14 85.6295 148.14C46.9393 148.14 17.2042 119.69 17.2042 81C17.2042 58.554 24.5017 38.5734 40.9211 25.7523C52.8032 16.4739 67.7558 10.9453 84 10.9453C122.69 10.9453 154.055 42.3098 154.055 81Z"
                fill="#E3E0E4" />
            <path id="Vector_2"
                d="M142.396 119.709C129.849 138.602 108.38 151.055 84 151.055C45.3108 151.055 13.9453 119.689 13.9453 81C13.9453 56.6203 26.3977 35.1511 45.2911 22.6036C37.9247 33.6909 33.6328 46.9997 33.6328 61.3125C33.6328 100.002 64.9983 131.367 103.688 131.367C118 131.367 131.309 127.075 142.396 119.709Z"
                fill="#D4CFD5" />
            <path id="Vector_3"
                d="M63.6562 70.5C63.6562 72.2217 63.3074 73.8616 62.6765 75.3533C60.7835 79.8286 56.408 81.1641 51.2433 81.1641C44.3569 81.1641 41.1551 77.8786 41.1551 70.9922C41.1551 65.8472 41.8346 60.9381 46.2823 59.033C47.7881 58.3883 49.4461 58.0313 51.1875 58.0313C58.0738 58.0313 63.6562 63.6136 63.6562 70.5V70.5Z"
                fill="#D4CFD5" />
            <path id="Vector_4"
                d="M94.6641 122.836C94.6641 125.686 93.7079 128.313 92.0988 130.413C89.8199 133.387 86.2316 133.116 82.1953 133.116C75.3089 133.116 69.7266 129.722 69.7266 122.836C69.7266 115.949 75.3089 110.367 82.1953 110.367C89.0817 110.367 94.6641 115.95 94.6641 122.836Z"
                fill="#D4CFD5" />
            <path id="Vector_5"
                d="M92.0981 130.412C89.8209 133.388 86.2312 135.305 82.1953 135.305C75.308 135.305 69.7266 129.723 69.7266 122.836C69.7266 122.757 69.7266 122.678 69.7298 122.6C76.5647 126.396 84.1017 129.083 92.0981 130.412Z"
                fill="#C5BEC6" />
            <path id="Vector_6"
                d="M124.195 53.6016C124.195 55.0535 123.785 56.4097 123.075 57.5607C121.746 59.7139 119.578 60.6215 116.861 60.6215C112.693 60.6215 109.852 57.8386 109.852 53.6705C109.852 50.6543 110.871 47.9824 113.428 46.7743C114.405 46.3129 115.496 46.0547 116.648 46.0547C120.817 46.0547 124.195 49.4334 124.195 53.6016Z"
                fill="#D4CFD5" />
            <path id="Vector_7"
                d="M129.773 111.352C129.773 112.347 129.581 113.298 129.23 114.169C128.114 116.941 125.399 117.478 122.227 117.478C118.058 117.478 116.861 115.589 116.861 111.421C116.861 107.774 117.267 104.662 120.706 103.958C121.197 103.858 121.706 103.805 122.227 103.805C126.395 103.805 129.773 107.183 129.773 111.352V111.352Z"
                fill="#D4CFD5" />
            <path id="Vector_8"
                d="M62.6555 75.4055C60.7523 79.8516 56.3325 82.9688 51.1875 82.9688C44.3002 82.9688 38.7188 77.3873 38.7188 70.5C38.7188 65.355 41.8359 60.9352 46.282 59.032C45.6389 60.5381 45.2812 62.1952 45.2812 63.9375C45.2812 70.8248 50.8627 76.4063 57.75 76.4063C59.4923 76.4063 61.1494 76.0486 62.6555 75.4055Z"
                fill="#C5BEC6" />
            <path id="Vector_9"
                d="M123.647 56.4169C122.535 59.1895 119.821 61.1484 116.648 61.1484C112.481 61.1484 109.102 57.7688 109.102 53.6016C109.102 49.92 111.74 46.852 115.228 46.1925C114.873 47.062 114.68 48.0136 114.68 49.0078C114.68 53.175 118.059 56.5547 122.227 56.5547C122.712 56.5547 123.188 56.5088 123.647 56.4169V56.4169Z"
                fill="#C5BEC6" />
            <path id="Vector_10"
                d="M129.225 114.167C128.113 116.94 125.4 118.898 122.227 118.898C118.059 118.898 114.68 115.519 114.68 111.352C114.68 107.67 117.318 104.602 120.806 103.943C120.451 104.812 120.258 105.764 120.258 106.758C120.258 110.925 123.638 114.305 127.805 114.305C128.29 114.305 128.766 114.259 129.225 114.167Z"
                fill="#C5BEC6" />
            <path id="Vector_11"
                d="M86.7891 38.1797C89.5979 38.1797 91.875 35.9026 91.875 33.0938C91.875 30.2849 89.5979 28.0078 86.7891 28.0078C83.9802 28.0078 81.7031 30.2849 81.7031 33.0938C81.7031 35.9026 83.9802 38.1797 86.7891 38.1797Z"
                fill="#D4CFD5" />
            <path id="Vector_12"
                d="M83.3437 82.4766C86.5151 82.4766 89.0859 79.9057 89.0859 76.7344C89.0859 73.5631 86.5151 70.9922 83.3437 70.9922C80.1724 70.9922 77.6016 73.5631 77.6016 76.7344C77.6016 79.9057 80.1724 82.4766 83.3437 82.4766Z"
                fill="#D4CFD5" />
            <path id="Vector_13"
                d="M30.8437 99.5391C33.4714 99.5391 35.6016 97.4089 35.6016 94.7812C35.6016 92.1536 33.4714 90.0234 30.8437 90.0234C28.2161 90.0234 26.0859 92.1536 26.0859 94.7812C26.0859 97.4089 28.2161 99.5391 30.8437 99.5391Z"
                fill="#C5BEC6" />
            <path id="Vector_14"
                d="M131.25 90.6797C133.878 90.6797 136.008 88.5495 136.008 85.9219C136.008 83.2942 133.878 81.1641 131.25 81.1641C128.622 81.1641 126.492 83.2942 126.492 85.9219C126.492 88.5495 128.622 90.6797 131.25 90.6797Z"
                fill="#D4CFD5" />
            <path id="Vector_15"
                d="M53.6484 48.4598C54.9768 48.4598 56.0536 47.383 56.0536 46.0547C56.0536 44.7264 54.9768 43.6495 53.6484 43.6495C52.3201 43.6495 51.2433 44.7264 51.2433 46.0547C51.2433 47.383 52.3201 48.4598 53.6484 48.4598Z"
                fill="#D4CFD5" />
            <path id="Vector_16"
                d="M50.0391 114.741C51.3674 114.741 52.4442 113.664 52.4442 112.336C52.4442 111.008 51.3674 109.931 50.0391 109.931C48.7107 109.931 47.6339 111.008 47.6339 112.336C47.6339 113.664 48.7107 114.741 50.0391 114.741Z"
                fill="#C5BEC6" />
            <path id="Vector_17"
                d="M113.367 130.491C114.696 130.491 115.772 129.414 115.772 128.086C115.772 126.758 114.696 125.681 113.367 125.681C112.039 125.681 110.962 126.758 110.962 128.086C110.962 129.414 112.039 130.491 113.367 130.491Z"
                fill="#D4CFD5" />
            <path id="Vector_18"
                d="M140.93 71.1005C142.258 71.1005 143.335 70.0236 143.335 68.6953C143.335 67.367 142.258 66.2902 140.93 66.2902C139.601 66.2902 138.525 67.367 138.525 68.6953C138.525 70.0236 139.601 71.1005 140.93 71.1005Z"
                fill="#D4CFD5" />
            <path id="Vector_19"
                d="M106.805 34.6786C108.133 34.6786 109.21 33.6018 109.21 32.2734C109.21 30.9451 108.133 29.8683 106.805 29.8683C105.476 29.8683 104.4 30.9451 104.4 32.2734C104.4 33.6018 105.476 34.6786 106.805 34.6786Z"
                fill="#D4CFD5" />
        </g>
    </svg>