<svg width="70" height="47" viewBox="0 0 70 47" fill="none" xmlns="http://www.w3.org/2000/svg">
<g clip-path="url(#clip0)">
<path d="M36.2971 21.5124L15.5298 0.745522C15.0495 0.264822 14.4083 0 13.7246 0C13.0409 0 12.3997 0.264822 11.9194 0.745522L10.3901 2.27451C9.39489 3.27081 9.39489 4.8901 10.3901 5.88488L27.8288 23.3237L10.3707 40.7818C9.89038 41.2625 9.62518 41.9033 9.62518 42.5866C9.62518 43.2707 9.89038 43.9115 10.3707 44.3925L11.9001 45.9211C12.3808 46.4018 13.0216 46.6667 13.7053 46.6667C14.3889 46.6667 15.0301 46.4018 15.5104 45.9211L36.2971 25.1353C36.7785 24.6531 37.043 24.0092 37.0414 23.3248C37.043 22.6377 36.7785 21.9942 36.2971 21.5124Z" fill="#E7E7E7"/>
</g>
<g clip-path="url(#clip1)">
<path d="M59.6304 21.5124L38.8631 0.745522C38.3828 0.264822 37.7416 0 37.058 0C36.3743 0 35.7331 0.264822 35.2528 0.745522L33.7234 2.27451C32.7282 3.27081 32.7282 4.8901 33.7234 5.88488L51.1622 23.3237L33.704 40.7818C33.2237 41.2625 32.9585 41.9033 32.9585 42.5866C32.9585 43.2707 33.2237 43.9115 33.704 44.3925L35.2334 45.9211C35.7141 46.4018 36.3549 46.6667 37.0386 46.6667C37.7223 46.6667 38.3635 46.4018 38.8438 45.9211L59.6304 25.1353C60.1119 24.6531 60.3763 24.0092 60.3748 23.3248C60.3763 22.6377 60.1119 21.9942 59.6304 21.5124Z" fill="#E7E7E7"/>
</g>
<defs>
<clipPath id="clip0">
<rect width="46.6667" height="46.6667" fill="white"/>
</clipPath>
<clipPath id="clip1">
<rect width="46.6667" height="46.6667" fill="white" transform="translate(23.3333)"/>
</clipPath>
</defs>
</svg>
