<svg width="50" height="51" viewBox="0 0 50 51" fill="none" xmlns="http://www.w3.org/2000/svg">
<g clip-path="url(#clip0)">
<path d="M5.2621 14.8343C7.18594 17.7433 8.87507 21.2004 9.14144 21.7948C9.21774 21.9662 9.33793 22.3705 9.47276 22.8652C10.4107 21.5398 11.555 20.4443 12.9225 19.6403C14.874 18.4936 17.1171 18.021 19.5387 18.1346C18.954 17.2064 18.422 16.2505 18.1663 15.5067C17.5093 13.5991 15.1281 5.72244 13.7354 2.35955C12.3434 -1.00334 7.04126 1.38994 3.96012 3.14163C0.878983 4.89332 0.706232 7.05188 1.01963 7.64643C1.33228 8.24083 3.33825 11.9253 5.2621 14.8343Z" fill="#E7E7E7"/>
<path d="M17.0765 25.6727C21.1744 23.9835 22.0506 26.0325 22.0506 26.0325C23.3491 24.8282 22.4421 23.4045 22.4421 23.4045C22.4421 23.4045 22.7701 22.7946 22.239 22.1685C21.9141 21.7869 20.8673 20.4015 19.9513 18.9461C17.5296 18.8325 15.2866 19.3051 13.3351 20.4518C11.9676 21.2558 10.8233 22.3505 9.88531 23.6767C10.219 24.8989 10.6471 26.6896 10.7583 27.0015C10.9151 27.4393 11.3211 28.0337 11.6972 28.1116C12.0724 28.1896 12.2916 28.5494 12.2916 28.5494C12.7764 29.5345 14.2934 29.597 14.2934 29.597C14.2934 29.597 12.9778 27.3618 17.0765 25.6727Z" fill="#E7E7E7"/>
<path d="M47.6529 34.3596C46.3973 33.3778 44.7171 32.9059 43.378 32.037C39.916 29.7908 44.4005 27.7215 45.8849 26.3831C48.4057 24.1107 49.0676 21.4926 48.0239 18.3132C47.6975 17.3184 46.9901 16.2692 47.3166 17.2631C49.1009 22.701 43.4307 25.2997 40.551 28.3402C39.4904 29.46 39.6366 30.6742 40.7385 31.7917C42.8703 33.9535 49.2835 35.7782 45.3083 39.1387C42.522 41.4938 38.1976 41.7049 35.1091 43.6938C34.6916 43.9626 34.643 44.6854 35.0628 44.9794C38.096 47.1006 42.2954 46.5898 45.2839 48.5161C40.1287 50.0672 34.7209 49.0554 29.4195 48.5697C29.4406 48.4195 29.4219 48.2919 29.4219 48.2919C28.748 44.1624 28.6797 43.2667 28.9924 41.2016C29.305 39.1372 28.9924 38.9488 28.9924 38.9488C25.8016 34.5691 21.9254 26.2978 21.9254 26.2978C21.409 25.4378 19.36 25.0732 16.8262 26.2036C14.1982 27.377 14.3859 28.9875 14.3859 28.9875L18.8443 42.1306C19.0011 42.5528 19.7206 42.7559 19.7206 42.7559C23.8972 43.9602 27.3016 48.1807 27.7555 48.8377C28.2094 49.4946 28.5376 49.2445 28.5376 49.2445L23.6667 38.3356C23.2947 38.2503 22.9155 37.9271 22.6921 37.4479C22.3689 36.7536 22.4973 36.0096 22.9788 35.7855C23.4603 35.5614 24.1125 35.9423 24.4358 36.6366C24.6794 37.1596 24.6656 37.7101 24.439 38.0464L29.0827 48.5388C29.0487 48.5355 29.0145 48.5322 28.9804 48.529C27.9442 48.4398 29.0316 49.7626 31.943 50.1282C38.4317 50.9426 40.9695 50.8923 47.2227 49.5678C47.8643 49.4322 47.8756 48.6128 47.4541 48.1831C44.6849 45.357 40.6301 45.9596 37.3102 44.4157C41.5337 42.6375 53.1209 38.6361 47.6529 34.3596Z" fill="#E7E7E7"/>
</g>
<defs>
<clipPath id="clip0">
<rect width="50" height="50" fill="white" transform="translate(0 0.666687)"/>
</clipPath>
</defs>
</svg>
