<svg width="50" height="51" viewBox="0 0 50 51" fill="none" xmlns="http://www.w3.org/2000/svg">
<g clip-path="url(#clip0)">
<path d="M20.108 14.8243C20.2254 16.5161 22.1584 17.4425 23.5556 16.4813C24.7846 15.6353 26.4623 16.5165 26.4623 18.0098V24.1533H31.0647C30.2474 20.8156 32.8937 17.564 36.414 17.807C39.5112 18.0217 41.8081 21.004 41.0347 24.1533H45.6836C49.5736 18.2718 45.6559 9.7624 38.0755 9.37315C38.9326 4.84668 35.4425 0.674316 30.8685 0.674316C29.2163 0.674316 27.6899 1.22354 26.4623 2.14873V11.318C26.4623 12.8102 24.7858 13.6929 23.5554 12.8464C22.0603 11.8179 19.9784 12.954 20.108 14.8243V14.8243Z" fill="#E7E7E7"/>
<path d="M10.5985 24.1534C12.091 24.1534 12.9735 25.8303 12.1268 27.0606C11.103 28.5481 12.2271 30.6364 14.1053 30.5067C15.801 30.3892 16.7228 28.4547 15.7628 27.0602C14.9164 25.8305 15.7984 24.1534 17.2913 24.1534H23.5336V19.6471C20.3773 20.4225 17.4007 18.1169 17.1863 15.0269C16.9433 11.5215 20.1814 8.85752 23.5336 9.67833V2.14883C18.2783 -1.81171 10.7498 2.71055 11.903 9.27627C4.27735 9.68145 0.418267 18.2093 4.342 24.1534H10.5985Z" fill="#E7E7E7"/>
<path d="M45.6346 27.0822H39.3974C37.9042 27.0822 37.0226 25.405 37.8689 24.1754C38.8296 22.7803 37.9054 20.8464 36.2114 20.7289C34.3335 20.5985 33.2088 22.6869 34.2329 24.1751C35.0794 25.4054 34.1976 27.0822 32.7047 27.0822H26.4624V31.586C29.8051 30.7676 33.0533 33.4206 32.8097 36.9345C32.5952 40.0257 29.6179 42.3294 26.4624 41.5548V49.1847C31.7177 53.1452 39.2462 48.6229 38.093 42.0572C45.5354 41.6616 49.6722 33.3121 45.6346 27.0822V27.0822Z" fill="#E7E7E7"/>
<path d="M29.8878 36.7318C30.0174 34.8625 27.9356 33.7253 26.4405 34.7542C25.2107 35.5998 23.5335 34.7192 23.5335 33.2258V27.0823H18.9285C19.7257 30.3265 17.2547 33.4415 13.9384 33.4415C10.5908 33.4415 8.17334 30.2871 8.9586 27.0823H4.34239C0.420805 33.0258 4.27237 41.5676 11.9204 41.9604C11.0633 46.4868 14.5534 50.6592 19.1273 50.6592C20.7796 50.6592 22.306 50.11 23.5336 49.1848V39.9177C23.5336 38.4257 25.2102 37.5427 26.4402 38.3892C27.8346 39.3488 29.7702 38.4272 29.8878 36.7318Z" fill="#E7E7E7"/>
</g>
<defs>
<clipPath id="clip0">
<rect width="50" height="50" fill="white" transform="translate(0 0.666687)"/>
</clipPath>
</defs>
</svg>
