<svg width="50" height="50" viewBox="0 0 50 50" fill="none" xmlns="http://www.w3.org/2000/svg">
<g clip-path="url(#clip0)">
<path d="M16.9643 29.2381C24.826 29.2381 31.6071 24.7499 33.4446 18.322C33.7655 17.2277 33.9281 16.0929 33.9286 14.9524C33.9286 7.07581 26.3188 0.666687 16.9643 0.666687C7.60978 0.666687 0 7.07581 0 14.9524C0.0200545 17.9 1.06986 20.7481 2.96805 23.0034C3.1699 23.2506 3.22484 23.5867 3.11148 23.8853L0.701032 30.2417L7.56356 27.2248C7.80683 27.1176 8.08541 27.125 8.32301 27.2444C10.6389 28.3976 13.1666 29.0616 15.7501 29.1954C16.166 29.2303 16.5615 29.2381 16.9643 29.2381ZM11.6071 14.0595C11.6071 10.121 14.0097 6.91669 16.9643 6.91669C19.9188 6.91669 22.3214 10.121 22.3214 14.0595C22.338 15.6373 21.9243 17.1902 21.1251 18.5504L22.7814 19.5444C23.0608 19.7057 23.2317 20.0052 23.2282 20.3283C23.2243 20.6509 23.0469 20.9465 22.7635 21.1013C22.4801 21.256 22.1353 21.246 21.8615 21.0747L19.9864 19.9507C19.1738 20.735 18.0939 21.1828 16.9643 21.2024C14.0097 21.2024 11.6071 17.9981 11.6071 14.0595Z" fill="#E7E7E7"/>
<path d="M33.0357 31.8927L31.4331 36.381H34.6383L33.0357 31.8927Z" fill="#E7E7E7"/>
<path d="M18.3589 18.9702L17.3972 18.3935C16.9848 18.1354 16.8549 17.5939 17.1055 17.1767C17.3562 16.7595 17.8951 16.62 18.3171 16.8632L19.5945 17.631C20.224 16.5467 20.5492 15.3129 20.5357 14.0595C20.5357 11.156 18.9 8.70239 16.9643 8.70239C15.0286 8.70239 13.3929 11.156 13.3929 14.0595C13.3929 16.9631 15.0286 19.4167 16.9643 19.4167C17.463 19.4088 17.9483 19.2536 18.3589 18.9702Z" fill="#E7E7E7"/>
<path d="M33.0357 47.9881C35.7845 47.9968 38.504 47.4244 41.0161 46.3088C41.2532 46.2015 41.5257 46.2029 41.7616 46.3131L49.149 49.7603L46.3758 43.2954C46.2381 42.9737 46.3004 42.6013 46.5358 42.3424C48.7405 40.0039 49.9782 36.9168 50 33.7024C50 26.4301 43.4409 20.3096 34.9431 19.5122C34.9056 19.6203 34.8537 19.7219 34.818 19.8291C34.7404 20.038 34.6588 20.2455 34.5725 20.4543C34.4857 20.6631 34.3877 20.8794 34.2874 21.0873C34.1875 21.2953 34.0895 21.4928 33.9831 21.6907C33.8767 21.8891 33.7625 22.09 33.6465 22.2862C33.5305 22.4828 33.4107 22.6764 33.2895 22.8678C33.1678 23.0588 33.0349 23.2427 32.9019 23.4267C32.7689 23.6103 32.6338 23.799 32.4886 23.9799C32.343 24.1613 32.2009 24.3318 32.0518 24.5053C31.9027 24.6784 31.7492 24.8549 31.5901 25.0258C31.4314 25.1963 31.2705 25.3541 31.1061 25.5159C30.9418 25.6776 30.7739 25.8424 30.6009 25.9998C30.4278 26.1567 30.2499 26.3058 30.0707 26.4558C29.8911 26.6058 29.7132 26.757 29.5266 26.9022C29.34 27.0478 29.1439 27.1847 28.9499 27.3229C28.7563 27.4611 28.5697 27.5906 28.3722 27.7249C28.1751 27.8587 27.9589 27.983 27.7475 28.1085C27.5356 28.2345 27.349 28.3514 27.1428 28.4656C26.9366 28.5803 26.6964 28.698 26.4731 28.8104C26.2652 28.9151 26.0598 29.0228 25.8484 29.1213C25.6134 29.2281 25.3715 29.3258 25.1339 29.4247C24.9207 29.5141 24.7097 29.6035 24.493 29.6863C24.2419 29.78 23.9838 29.865 23.7279 29.9461C23.5108 30.0176 23.2971 30.0944 23.0778 30.1585C22.8097 30.2374 22.532 30.3023 22.2582 30.3712C22.0429 30.4248 21.8305 30.4854 21.6117 30.5329C21.3178 30.597 21.017 30.6454 20.7188 30.6969C20.5135 30.7326 20.3108 30.7758 20.1028 30.8059C19.7654 30.8543 19.4214 30.8848 19.0787 30.9175C18.9 30.9345 18.7304 30.9606 18.5534 30.9728C18.0267 31.0068 17.497 31.0238 16.9643 31.0238C16.7668 31.0238 16.5715 31.0238 16.3757 31.0169C16.1739 31.8975 16.0719 32.7987 16.0714 33.7024C16.0714 41.579 23.6812 47.9881 33.0357 47.9881V47.9881ZM27.7305 41.4382L32.1948 28.9382C32.3212 28.5824 32.6582 28.3448 33.0357 28.3448C33.4133 28.3448 33.7503 28.5824 33.8767 28.9382L38.341 41.4382C38.5067 41.9025 38.2647 42.4134 37.8 42.5791C37.3357 42.7448 36.8247 42.5028 36.659 42.0381L35.2757 38.1667H30.7957L29.4124 42.0381C29.2468 42.5028 28.7358 42.7448 28.2715 42.5791C27.8068 42.4134 27.5648 41.9025 27.7305 41.4382V41.4382Z" fill="#E7E7E7"/>
</g>
<defs>
<clipPath id="clip0">
<rect width="50" height="49.1071" fill="white" transform="translate(0 0.666687)"/>
</clipPath>
</defs>
</svg>
