<svg width="163" height="114" viewBox="0 0 163 114" fill="none" xmlns="http://www.w3.org/2000/svg">
<path d="M1.84399 96.6648C4.3776 107.813 10.451 114.408 22.7716 110.575C39.7025 105.307 48.4091 81.8612 50.341 66.2132C51.4966 56.8525 46.963 -6.81254 71.5192 3.55564C84.5854 9.07248 74.0594 35.8803 70.1407 43.4059C64.8889 53.4917 57.9777 63.1872 50.341 71.6018C44.3805 78.1694 36.5052 84.0358 32.1703 91.9028C23.5473 107.552 40.2044 110.442 51.97 110.199C63.0751 109.969 74.3694 106.27 81.7951 97.542C89.4959 88.4902 89.0266 74.3069 78.0983 68.2183C67.8385 62.5021 54.4488 63.8857 43.7619 67.529C41.9721 68.1392 23.9506 77.5842 28.0975 71.1632C36.4642 58.2084 52.8588 49.645 66.5693 43.8445C84.3842 36.3074 102.778 33.7669 121.583 30.1851C134.728 27.6812 122.64 27.9367 116.946 28.8693C92.9854 32.7939 71.4768 44.8472 51.7194 58.4437C41.7671 65.2926 32.1751 72.6572 22.3957 79.7472C19.7143 81.6912 12.4877 86.1442 21.7064 81.627C44.6234 70.3977 67.1209 58.0632 90.6924 48.2305C97.9158 45.2173 105.503 42.2221 113.249 40.7742C113.824 40.6667 114.559 40.3308 115.004 40.7116C116.546 42.0334 111.557 42.8735 109.74 43.7818C84.2217 56.5411 58.6871 68.8997 34.8019 84.6345C25.0376 91.0669 15.1824 97.8757 6.23002 105.437C0.484318 110.29 6.30424 108.302 9.80151 106.878C38.7722 95.0846 64.123 75.2251 91.3817 60.1354C102.184 54.1556 113.372 48.2232 125.029 44.0324C125.364 43.9121 138.144 39.1058 131.984 45.1603C114.778 62.0695 91.2334 72.9641 72.4591 88.1434C71.5945 88.8424 58.2953 98.2838 59.8649 102.179C61.3651 105.901 76.6725 102.505 77.5343 102.367C105.927 97.8034 133.395 87.9893 160.869 79.7472" stroke="white" stroke-width="3" stroke-linecap="round" stroke-linejoin="round"/>
</svg>
