<svg width="162" height="162" viewBox="0 0 162 162" fill="none" xmlns="http://www.w3.org/2000/svg">
<g id="circles">
<mask id="mask0" mask-type="alpha" maskUnits="userSpaceOnUse" x="0" y="0" width="162" height="162">
<rect id="Rectangle 28" width="162" height="162" fill="#C4C4C4"/>
</mask>
<g mask="url(#mask0)">
<g id="circles_2">
<path id="outter" d="M4.46801e-05 162C4.65399e-05 140.726 4.1903 119.66 12.3316 100.005C20.4728 80.3505 32.4057 62.4918 47.4488 47.4487C62.4918 32.4056 80.3506 20.4728 100.005 12.3315C119.66 4.19026 140.726 1.35653e-05 162 1.63551e-05L162 162L4.46801e-05 162Z" fill="#D39C9C"/>
<path id="inner" d="M46.2858 162C46.2858 146.804 49.2789 131.757 55.0941 117.718C60.9092 103.679 69.4327 90.9227 80.1778 80.1776C90.9228 69.4326 103.679 60.9091 117.718 55.0939C131.757 49.2787 146.804 46.2857 162 46.2857L162 162L46.2858 162Z" fill="#8A5151"/>
</g>
</g>
</g>
</svg>
