<svg width="119" height="119" viewBox="0 0 119 119" fill="none" xmlns="http://www.w3.org/2000/svg">
<g clip-path="url(#clip0)">
<path d="M117.879 1.21126C116.626 -0.0897446 114.651 -0.375332 113.088 0.513161L69.3295 25.1292L73.2484 5.5506C73.5895 3.82914 72.7724 2.09976 71.2334 1.27473C69.6944 0.45763 67.7905 0.719418 66.553 1.96489L10.7128 57.8051C10.6097 57.8844 10.5145 57.9717 10.4272 58.0669C3.70799 64.8892 0.0032959 73.8535 0.0032959 83.3016C0.0032959 102.983 16.02 119 35.7017 119C45.1578 119 54.122 115.295 60.9364 108.584C61.0396 108.481 61.1268 108.378 61.222 108.267L108.629 60.8672C109.819 59.6773 110.129 57.8606 109.399 56.3454C108.677 54.8302 107.059 53.9734 105.385 54.1242L88.1386 56.036L118.419 6.02658C119.355 4.47965 119.141 2.50434 117.879 1.21126Z" fill="#5193F7"/>
<path d="M35.7014 107.101C48.8451 107.101 59.5003 96.4454 59.5003 83.3016C59.5003 70.1579 48.8451 59.5027 35.7014 59.5027C22.5576 59.5027 11.9025 70.1579 11.9025 83.3016C11.9025 96.4454 22.5576 107.101 35.7014 107.101Z" fill="#DD47EA"/>
</g>
<defs>
<clipPath id="clip0">
<rect width="119" height="119" fill="white"/>
</clipPath>
</defs>
</svg>
